<svg width="29" height="22" viewBox="0 0 29 22" fill="none" xmlns="http://www.w3.org/2000/svg">
<path d="M24.4588 2.04997C22.6272 1.23854 20.6631 0.640711 18.6095 0.298311C18.5721 0.291703 18.5347 0.308217 18.5155 0.341247C18.2629 0.775025 17.9831 1.34092 17.7871 1.78572C15.5784 1.46644 13.3809 1.46644 11.2174 1.78572C11.0215 1.33104 10.7315 0.775025 10.4778 0.341247C10.4585 0.309319 10.4211 0.292805 10.3838 0.298311C8.3313 0.639617 6.3672 1.23744 4.53448 2.04997C4.51861 2.05657 4.50501 2.06759 4.49599 2.08189C0.770501 7.45576 -0.250064 12.6975 0.250591 17.8743C0.252856 17.8997 0.267581 17.9239 0.28797 17.9393C2.74594 19.6821 5.1269 20.7402 7.46365 21.4415C7.50105 21.4525 7.54067 21.4393 7.56447 21.4096C8.11723 20.6807 8.60996 19.9123 9.03243 19.1041C9.05737 19.0568 9.03357 19.0006 8.98261 18.9819C8.20105 18.6957 7.45685 18.3466 6.74098 17.9503C6.68435 17.9184 6.67982 17.8402 6.73191 17.8027C6.88256 17.6938 7.03324 17.5804 7.17709 17.4659C7.20311 17.4449 7.23938 17.4405 7.26998 17.4537C11.9729 19.5269 17.0645 19.5269 21.7119 17.4537C21.7425 17.4394 21.7788 17.4439 21.8059 17.4648C21.9498 17.5793 22.1005 17.6938 22.2523 17.8027C22.3043 17.8402 22.3009 17.9184 22.2443 17.9503C21.5285 18.3543 20.7842 18.6957 20.0016 18.9808C19.9506 18.9995 19.9279 19.0568 19.9529 19.1041C20.3844 19.9111 20.8771 20.6796 21.4197 21.4085C21.4424 21.4393 21.4831 21.4525 21.5205 21.4415C23.8686 20.7402 26.2495 19.6821 28.7075 17.9393C28.729 17.9239 28.7426 17.9008 28.7449 17.8754C29.3441 11.8905 27.7413 6.6917 24.4961 2.08299C24.4882 2.06759 24.4746 2.05657 24.4588 2.04997ZM9.73475 14.7222C8.31883 14.7222 7.15216 13.4671 7.15216 11.9257C7.15216 10.3844 8.2962 9.12927 9.73475 9.12927C11.1846 9.12927 12.34 10.3954 12.3173 11.9257C12.3173 13.4671 11.1732 14.7222 9.73475 14.7222ZM19.2834 14.7222C17.8675 14.7222 16.7009 13.4671 16.7009 11.9257C16.7009 10.3844 17.8449 9.12927 19.2834 9.12927C20.7333 9.12927 21.8886 10.3954 21.866 11.9257C21.866 13.4671 20.7333 14.7222 19.2834 14.7222Z" fill="white"/>
</svg>
