<svg width="23" height="22" viewBox="0 0 23 22" fill="none" xmlns="http://www.w3.org/2000/svg">
<path fill-rule="evenodd" clip-rule="evenodd" d="M2.82676 0.0428018C2.16117 0.160656 1.49811 0.495941 1.02764 0.952522C-0.258663 2.20094 -0.348216 4.17888 0.819972 5.5396C0.920256 5.65641 1.01487 5.75198 1.03023 5.75198C1.0456 5.75198 1.05017 5.73928 1.04039 5.72377C1.03061 5.70826 1.03719 5.69556 1.055 5.69556C1.07324 5.69556 1.08015 5.71799 1.07082 5.74684C1.05368 5.79982 1.24406 5.96814 1.55308 6.17319C1.88293 6.39206 2.48158 6.61597 2.90308 6.67812L3.06849 6.70252V6.35973V6.01697L2.85993 5.95217C2.41961 5.81542 2.00772 5.5082 1.79763 5.15989C1.6101 4.84894 1.58936 4.46743 1.75207 4.3221C2.01086 4.09093 2.36079 4.16943 2.46734 4.4826C2.56089 4.75755 2.73148 4.97653 2.9307 5.07738C2.98941 5.10708 3.04441 5.13139 3.05296 5.13139C3.0615 5.13139 3.06849 4.74508 3.06849 4.27293C3.06849 3.44642 3.06639 3.41384 3.01237 3.397C2.91473 3.36662 2.54078 3.11283 2.42534 2.99862C2.16304 2.73904 2.03698 2.46762 2.01146 2.1074C1.98057 1.67155 2.1318 1.27923 2.43768 1.00152C2.60421 0.850323 2.91496 0.674472 3.01556 0.674472C3.06403 0.674472 3.06849 0.645869 3.06849 0.335972C3.06849 0.149796 3.06524 -0.00140063 3.0613 9.7881e-06C3.05736 0.001392 2.95181 0.0206583 2.82676 0.0428018ZM10.9198 0.0412506C8.68519 0.43803 7.44031 2.78612 8.4046 4.78539C8.61293 5.21735 8.8597 5.53297 9.28286 5.90868C9.69858 6.27778 10.3825 6.58641 10.9867 6.67755L11.1521 6.70252V6.35753V6.01254L11.0155 5.97937C10.7837 5.92306 10.4285 5.73689 10.2112 5.55779C10.0972 5.46377 9.99604 5.39923 9.98652 5.41435C9.96552 5.44767 9.85761 5.39748 9.85761 5.35441C9.85761 5.33853 9.87055 5.33337 9.88638 5.34296C9.9022 5.35255 9.91514 5.34758 9.91514 5.33193C9.91514 5.31627 9.89247 5.29052 9.8648 5.27469C9.83713 5.25887 9.82904 5.24555 9.84691 5.24507C9.8925 5.24389 9.95237 5.32081 9.93154 5.35387C9.92199 5.36899 9.92648 5.3888 9.94147 5.39788C9.9902 5.42741 10.0083 5.35483 9.96434 5.30592C9.94083 5.27974 9.87901 5.17582 9.82697 5.07498C9.74544 4.91704 9.73204 4.86161 9.73023 4.67529C9.72775 4.4173 9.77433 4.33462 9.97875 4.23403C10.081 4.18371 10.1357 4.17327 10.2179 4.18842C10.3716 4.21668 10.5063 4.34511 10.565 4.51919C10.6253 4.69837 10.6718 4.77501 10.8049 4.91518C10.8918 5.00663 11.0832 5.13139 11.1366 5.13139C11.1452 5.13139 11.1521 4.75146 11.1521 4.28706V3.44273L10.9173 3.30682C10.6437 3.14843 10.3652 2.88835 10.2541 2.68745C10.0251 2.27332 10.0318 1.6849 10.2701 1.2862C10.4169 1.04053 10.9131 0.674472 11.0992 0.674472C11.1477 0.674472 11.1521 0.645869 11.1521 0.335972C11.1521 0.149796 11.1489 -0.00140063 11.145 9.7881e-06C11.141 0.001392 11.0397 0.0199533 10.9198 0.0412506ZM18.9337 0.0550165C18.2392 0.188357 17.6656 0.489114 17.1638 0.983015C17.0131 1.13136 16.8174 1.36064 16.7288 1.49251C15.7264 2.9844 16.0719 4.9653 17.522 6.04027C17.943 6.35237 18.6108 6.62554 19.0704 6.6736L19.2358 6.69089V6.35299V6.01511L19.0567 5.96628C18.6406 5.85285 18.1901 5.53779 17.9837 5.21602C17.8004 4.93013 17.7461 4.56489 17.8621 4.3977C17.9693 4.24334 18.0661 4.18946 18.2319 4.19192C18.4639 4.19536 18.5227 4.25383 18.7007 4.6584C18.7876 4.85577 18.9116 4.99018 18.9522 4.931C18.9731 4.90059 18.9774 4.90409 18.9709 4.94638C18.965 4.98502 18.9964 5.02017 19.0776 5.06581C19.1409 5.10135 19.2024 5.13069 19.2142 5.13094C19.2261 5.1312 19.2358 4.7512 19.2358 4.28653V3.44166L19.056 3.34236C18.8118 3.20747 18.5634 3.01097 18.4552 2.86705C18.0232 2.29242 18.0682 1.5216 18.5622 1.03328C18.7078 0.889392 18.9788 0.728745 19.1855 0.663837C19.2294 0.650043 19.2358 0.608464 19.2358 0.33851C19.2358 0.168301 19.2261 0.0236767 19.2142 0.0171605C19.2024 0.0106444 19.0761 0.0276825 18.9337 0.0550165ZM3.83966 0.343278L3.84846 0.660989L4.01229 0.70835C4.35054 0.806092 4.68499 1.08581 4.84457 1.40448C4.91237 1.53985 4.92399 1.59813 4.92399 1.80281C4.92399 1.99871 4.91346 2.05634 4.86646 2.11778C4.77901 2.23205 4.67116 2.28235 4.51351 2.28235C4.30768 2.28235 4.24399 2.22097 4.11744 1.90072C4.02418 1.6647 3.92228 1.52072 3.84852 1.52072C3.8388 1.52072 3.83356 1.80831 3.8369 2.15978L3.843 2.79887L4.10507 2.93461C4.43149 3.10366 4.59279 3.21901 4.79693 3.42933C5.09769 3.73923 5.20741 4.00921 5.20393 4.43078C5.19996 4.90753 5.06311 5.23825 4.73859 5.55528C4.50796 5.78061 4.26154 5.92131 3.98986 5.98281L3.84846 6.0148L3.83963 6.35127L3.83083 6.68771L3.98876 6.6683C4.51998 6.60303 5.18839 6.29677 5.66185 5.90168C6.64426 5.08186 7.06956 3.72605 6.73519 2.47981C6.65059 2.16447 6.37954 1.60918 6.19131 1.36558C5.6716 0.69292 4.94557 0.235634 4.1303 0.0674557C3.80623 0.000601913 3.82954 -0.0214848 3.83966 0.343278ZM11.9063 0.333517L11.9145 0.648887L12.1146 0.717405C12.6305 0.894046 12.9783 1.29762 13.0141 1.76123C13.032 1.99358 12.9921 2.09629 12.8396 2.21036C12.7644 2.26655 12.71 2.28235 12.5912 2.28235C12.4557 2.28235 12.4293 2.27202 12.3494 2.18791C12.2952 2.13084 12.2276 2.00266 12.1787 1.86408C12.1197 1.69731 12.0753 1.61914 12.016 1.5777C11.9711 1.54636 11.9266 1.52072 11.9172 1.52072C11.9078 1.52072 11.9001 1.80611 11.9001 2.15493V2.78914L12.0511 2.86367C12.6204 3.14448 12.9798 3.45573 13.1568 3.82112C13.2544 4.02275 13.2662 4.07192 13.2764 4.32173C13.2978 4.84508 13.1565 5.23043 12.8232 5.55762C12.618 5.75909 12.4316 5.86656 12.1159 5.96554L11.9145 6.02867L11.9063 6.3595L11.8982 6.69036L12.0502 6.67129C13.0555 6.54503 14.085 5.80569 14.5679 4.86342C14.9746 4.06955 15.0366 3.05743 14.7296 2.21933C14.4071 1.3385 13.6927 0.604234 12.8114 0.247511C12.5797 0.153746 12.2521 0.0642118 12.0396 0.0365676L11.8981 0.0181479L11.9063 0.333517ZM19.99 0.339949L19.9981 0.654246L20.1147 0.687956C20.3176 0.746601 20.5971 0.90863 20.748 1.05495C21.0372 1.33559 21.1854 1.81542 21.0573 2.05612C20.9805 2.2004 20.8391 2.28235 20.667 2.28235C20.5446 2.28235 20.5115 2.26946 20.4313 2.19067C20.3726 2.13293 20.3139 2.02757 20.2728 1.90597C20.2125 1.72805 20.0709 1.52072 20.0095 1.52072C19.9951 1.52072 19.9837 1.79982 19.9837 2.15502V2.78928L20.1635 2.87791C20.6324 3.10905 21.0388 3.44673 21.1982 3.73773C21.4223 4.14664 21.4179 4.71577 21.187 5.1818C21.0026 5.55412 20.5691 5.88481 20.1348 5.98453L19.9837 6.0192V6.35104C19.9837 6.73902 19.9566 6.71907 20.3577 6.62528C21.9716 6.248 23.0592 4.84982 22.9975 3.23156C22.9465 1.89245 22.1146 0.725726 20.8633 0.23854C20.6421 0.152419 20.1585 0.0256795 20.051 0.0256795H19.9818L19.99 0.339949ZM2.99206 1.57009C2.77262 1.86111 2.76425 2.14655 2.96876 2.36218L3.06694 2.4657L3.06772 1.97911C3.06815 1.71147 3.06446 1.49251 3.05952 1.49251C3.05457 1.49251 3.02422 1.52744 2.99206 1.57009ZM11.0354 1.6265C10.8485 1.9155 10.8496 2.15296 11.0387 2.34932L11.1507 2.4657L11.1514 1.97911C11.1518 1.71147 11.1454 1.49251 11.1371 1.49251C11.1289 1.49251 11.0831 1.5528 11.0354 1.6265ZM19.1375 1.58571C18.9652 1.80712 18.931 2.0474 19.0423 2.25377C19.0783 2.32052 19.1366 2.39388 19.1718 2.41682L19.2358 2.45848V1.9755C19.2358 1.70986 19.23 1.49251 19.2229 1.49251C19.2158 1.49251 19.1773 1.53446 19.1375 1.58571ZM3.83083 4.4685C3.83083 4.84861 3.83799 5.1596 3.84677 5.1596C3.85554 5.1596 3.92027 5.12321 3.9906 5.07876C4.26226 4.90708 4.36432 4.73225 4.36665 4.43459C4.36789 4.27426 4.35676 4.23299 4.28547 4.13352C4.21784 4.03917 3.89904 3.78199 3.84521 3.77835C3.8373 3.77782 3.83083 4.08839 3.83083 4.4685ZM11.9181 3.79731C11.8993 3.81581 11.8921 5.1596 11.9109 5.1596C11.9635 5.1596 12.2079 4.99044 12.2883 4.89825C12.5108 4.64333 12.5019 4.21804 12.2697 4.01434C12.1536 3.91251 11.937 3.7788 11.9181 3.79731ZM19.9854 4.46855L19.9845 5.16037L20.0954 5.10491C20.363 4.97103 20.4974 4.7839 20.5228 4.50991C20.5396 4.32799 20.5023 4.19065 20.4081 4.08689C20.3337 4.00501 20.1429 3.85725 20.0497 3.80935L19.9863 3.77674L19.9854 4.46855ZM2.91913 3.9166C2.90003 3.94664 2.87402 3.96492 2.86137 3.95725C2.84871 3.94958 2.83835 3.96312 2.83835 3.98729C2.83835 4.01147 2.82569 4.03127 2.81019 4.03127C2.79299 4.03127 2.79463 4.00422 2.81442 3.96162C2.8322 3.92334 2.85694 3.89815 2.86934 3.90568C2.88176 3.91319 2.90003 3.90645 2.90998 3.89068C2.91991 3.87491 2.93386 3.86202 2.94097 3.86202C2.9481 3.86202 2.93826 3.88659 2.91913 3.9166ZM20.1564 3.94664C20.1564 3.96216 20.1507 3.97485 20.1437 3.97485C20.1367 3.97485 20.123 3.96216 20.1132 3.94664C20.1034 3.93113 20.1091 3.91843 20.1259 3.91843C20.1426 3.91843 20.1564 3.93113 20.1564 3.94664ZM3.00305 4.00306C3.00066 4.03409 2.98852 4.05948 2.97606 4.05948C2.94885 4.05948 2.94807 4.04952 2.97088 3.99127C2.99473 3.93028 3.00825 3.93525 3.00305 4.00306ZM20.2714 4.00306C20.2714 4.01857 20.2714 4.03761 20.2714 4.04537C20.2714 4.08489 20.2327 4.06673 20.2264 4.02422C20.2223 3.99708 20.2308 3.97485 20.2452 3.97485C20.2596 3.97485 20.2714 3.98755 20.2714 4.00306ZM20.1276 4.10481C20.1276 4.12791 20.1697 4.16475 20.2211 4.18667C20.2966 4.21885 20.3025 4.22672 20.2519 4.22763C20.2175 4.22822 20.1624 4.19527 20.1297 4.1544C20.067 4.07632 20.0499 4.01573 20.0988 4.04537C20.1146 4.05496 20.1276 4.0817 20.1276 4.10481ZM2.96349 4.18785C3.02721 4.21505 3.0376 4.22684 2.99842 4.22763C2.93789 4.22881 2.80904 4.12469 2.81045 4.07572C2.81094 4.05903 2.82518 4.06873 2.84212 4.09728C2.85904 4.12585 2.91367 4.16661 2.96349 4.18785ZM20.3871 4.20015C20.3338 4.23242 20.3226 4.22139 20.3465 4.16035C20.3603 4.12503 20.3739 4.12049 20.3973 4.14337C20.4206 4.16627 20.4179 4.18148 20.3871 4.20015ZM2.68404 4.27087C2.72935 4.29403 2.74638 4.31307 2.72185 4.31318C2.69731 4.31327 2.66302 4.29939 2.64564 4.28235C2.59933 4.23694 2.49458 4.27772 2.5083 4.33581C2.51452 4.36224 2.52781 4.41561 2.53782 4.45439C2.55568 4.52373 2.55528 4.52365 2.51253 4.44858C2.46193 4.35964 2.46596 4.2911 2.52393 4.2551C2.5789 4.221 2.58836 4.22193 2.68404 4.27087ZM2.85282 4.42633C2.88608 4.47908 2.81862 4.45451 2.7637 4.39386C2.70927 4.33378 2.70933 4.33358 2.77202 4.36582C2.80674 4.38368 2.8431 4.4109 2.85282 4.42633ZM19.1783 4.38057C19.1783 4.38652 19.1523 4.39803 19.1207 4.40616C19.089 4.41428 19.0704 4.4094 19.0792 4.39535C19.0947 4.37078 19.1783 4.35832 19.1783 4.38057ZM20.1158 4.44714C20.0958 4.46669 20.0413 4.42695 20.0413 4.39287C20.0413 4.37414 20.0578 4.37628 20.0851 4.39854C20.1092 4.41817 20.123 4.44004 20.1158 4.44714ZM18.9879 4.52638C18.9977 4.55149 18.9929 4.5628 18.9766 4.55293C18.9609 4.54345 18.9481 4.52376 18.9481 4.50915C18.9481 4.46858 18.9687 4.47752 18.9879 4.52638ZM2.63698 4.53902C2.63698 4.55453 2.62404 4.56723 2.60821 4.56723C2.59239 4.56723 2.57945 4.55453 2.57945 4.53902C2.57945 4.5235 2.59239 4.51081 2.60821 4.51081C2.62404 4.51081 2.63698 4.5235 2.63698 4.53902ZM9.61119 4.8299C9.60322 4.85024 9.55184 4.88279 9.49701 4.90223C9.39946 4.93684 9.37282 4.97216 9.42187 5.00189C9.43536 5.01007 9.47095 4.99853 9.50098 4.97625C9.56573 4.92818 9.5987 4.92341 9.5987 4.96214C9.5987 4.97766 9.57681 4.99035 9.55006 4.99035C9.50757 4.99035 9.50846 4.99571 9.55725 5.03272C9.61179 5.07413 9.61179 5.07467 9.55774 5.05605C9.51467 5.04121 9.50639 5.04711 9.52031 5.08274C9.53357 5.11658 9.52606 5.12395 9.49154 5.11094C9.45622 5.09766 9.44951 5.10522 9.46393 5.14206C9.47566 5.17207 9.47161 5.18386 9.45337 5.1728C9.43709 5.16293 9.43128 5.13159 9.44048 5.10319C9.44969 5.07478 9.44373 5.04336 9.42728 5.03337C9.41022 5.02305 9.39733 5.04025 9.39733 5.07331C9.39733 5.10525 9.38438 5.13139 9.36856 5.13139C9.32886 5.13139 9.33243 5.06527 9.37432 5.0242C9.40116 4.99788 9.39957 4.99069 9.36712 4.9919C9.28692 4.99492 9.1827 5.16211 9.18462 5.28468L9.18644 5.39937L9.15798 5.30674C9.13287 5.22496 9.13975 5.20019 9.21676 5.09518C9.28278 5.00516 9.49514 4.84708 9.61939 4.79552C9.62284 4.79408 9.61916 4.80954 9.61119 4.8299ZM9.73304 5.00908C9.72534 5.01664 9.71049 4.99647 9.70008 4.96426C9.68966 4.93207 9.66829 4.90573 9.65261 4.90573C9.63691 4.90573 9.63322 4.89123 9.64438 4.87349C9.65733 4.85298 9.67968 4.86926 9.70589 4.91831C9.72853 4.96068 9.74073 5.00152 9.73304 5.00908ZM19.1527 4.94206C19.1292 4.96508 19.1207 4.96192 19.1207 4.93018C19.1207 4.87411 19.1594 4.83617 19.1737 4.87822C19.1798 4.89608 19.1703 4.9248 19.1527 4.94206ZM19.0824 4.97357C19.0824 4.99616 19.0649 5.0066 19.0416 4.99783C19.008 4.98522 19.0076 4.97828 19.0392 4.95865C19.0603 4.94553 19.0786 4.93461 19.08 4.93436C19.0813 4.93413 19.0824 4.95176 19.0824 4.97357ZM9.685 5.00279C9.685 5.00965 9.67206 5.02307 9.65624 5.03267C9.64042 5.04226 9.62747 5.03664 9.62747 5.02023C9.62747 5.00381 9.64042 4.99035 9.65624 4.99035C9.67206 4.99035 9.685 4.99594 9.685 5.00279ZM1.62345 5.18781C1.59152 5.23797 1.54382 5.26451 1.54382 5.23213C1.54382 5.21627 1.63058 5.13139 1.64681 5.13139C1.65371 5.13139 1.64321 5.15678 1.62345 5.18781ZM9.31103 5.18781C9.31103 5.20333 9.29808 5.21602 9.28226 5.21602C9.26644 5.21602 9.25349 5.20333 9.25349 5.18781C9.25349 5.1723 9.26644 5.1596 9.28226 5.1596C9.29808 5.1596 9.31103 5.1723 9.31103 5.18781ZM9.1497 5.39232C9.1919 5.53331 9.19133 5.5431 9.13747 5.59604C9.1018 5.63111 9.08089 5.63833 9.08089 5.61553C9.08089 5.59568 9.06872 5.58676 9.05387 5.59579C9.039 5.60479 9.02873 5.58738 9.03106 5.55709C9.03339 5.52679 9.04878 5.50431 9.0653 5.5071C9.08178 5.50992 9.09898 5.47413 9.10353 5.42758C9.11017 5.35938 9.10546 5.35117 9.07925 5.38527C9.0518 5.42093 9.04939 5.41946 9.0638 5.37591C9.07321 5.3475 9.08089 5.30623 9.08089 5.28423C9.08089 5.20668 9.1058 5.24584 9.1497 5.39232ZM1.64482 5.35401L1.70204 5.42146L1.63731 5.38248C1.6017 5.36104 1.57259 5.32538 1.57259 5.30327C1.57259 5.28112 1.57595 5.26832 1.58009 5.27478C1.58421 5.28127 1.61335 5.31689 1.64482 5.35401ZM9.34302 5.36519C9.32544 5.38242 9.31083 5.43526 9.3106 5.48259C9.31028 5.54403 9.3028 5.55726 9.28448 5.52888C9.27038 5.50702 9.26371 5.47528 9.26969 5.45836C9.32207 5.31004 9.34845 5.2631 9.36085 5.29605C9.36865 5.31681 9.36062 5.34792 9.34302 5.36519ZM9.80007 5.32584C9.80007 5.33969 9.78065 5.35833 9.75692 5.36727C9.71308 5.38377 9.69801 5.3537 9.73296 5.31946C9.76043 5.29249 9.80007 5.29627 9.80007 5.32584ZM9.66616 5.4288C9.65678 5.45274 9.64295 5.46628 9.63541 5.45889C9.62787 5.4515 9.63023 5.4319 9.64067 5.41537C9.66904 5.37035 9.68561 5.37909 9.66616 5.4288ZM1.74519 5.49466C1.74519 5.52377 1.72577 5.56341 1.70204 5.58273C1.67483 5.60487 1.65889 5.60676 1.65889 5.58783C1.65889 5.57136 1.67126 5.55035 1.68639 5.54118C1.70152 5.53201 1.70661 5.50586 1.6977 5.4831C1.68881 5.46033 1.69583 5.44169 1.71335 5.44169C1.73086 5.44169 1.74519 5.46552 1.74519 5.49466ZM9.87199 5.4699C9.86221 5.48541 9.83879 5.49791 9.81995 5.49768C9.79935 5.4974 9.80292 5.48631 9.82884 5.4699C9.8841 5.43486 9.89406 5.43486 9.87199 5.4699ZM9.10965 5.52631C9.08684 5.54013 9.07772 5.56081 9.0894 5.57226C9.10105 5.58372 9.12571 5.57827 9.14418 5.56016C9.18764 5.51754 9.16339 5.49376 9.10965 5.52631ZM1.25614 5.56862C1.16193 5.62143 1.12514 5.62143 1.16984 5.56862C1.18955 5.54535 1.23319 5.52676 1.26685 5.5273C1.32452 5.52826 1.32389 5.53066 1.25614 5.56862ZM9.60161 5.63102C9.57399 5.67759 9.5716 5.67694 9.5708 5.6227C9.56985 5.5574 9.60635 5.50648 9.62172 5.5517C9.62712 5.56758 9.61806 5.60329 9.60161 5.63102ZM9.72962 5.62414C9.78808 5.76129 9.77942 5.7849 9.71377 5.66735C9.65647 5.5647 9.64511 5.52631 9.67209 5.52631C9.68081 5.52631 9.70669 5.57034 9.72962 5.62414ZM1.47783 5.65325C1.53654 5.70755 1.57146 5.75198 1.55547 5.75198C1.53945 5.75198 1.48243 5.70755 1.42875 5.65325C1.37507 5.59895 1.34014 5.55452 1.35113 5.55452C1.36209 5.55452 1.41911 5.59895 1.47783 5.65325ZM1.20523 5.70566C1.22323 5.69474 1.22798 5.69999 1.2165 5.71819C1.18563 5.76716 1.11308 5.7262 1.13486 5.67206C1.15209 5.62919 1.15465 5.62944 1.16397 5.67474C1.16961 5.70208 1.18817 5.71599 1.20523 5.70566ZM9.28226 5.66735C9.28226 5.68287 9.26931 5.69556 9.25349 5.69556C9.23767 5.69556 9.22472 5.68287 9.22472 5.66735C9.22472 5.65184 9.23767 5.63915 9.25349 5.63915C9.26931 5.63915 9.28226 5.65184 9.28226 5.66735ZM9.64651 5.73082C9.63854 5.75023 9.63202 5.73435 9.63202 5.69556C9.63202 5.65678 9.63854 5.64092 9.64651 5.6603C9.65451 5.67971 9.65451 5.71144 9.64651 5.73082ZM9.25119 5.73023C9.28649 5.71782 9.28649 5.72177 9.25119 5.75928C9.22872 5.78318 9.2102 5.80081 9.21003 5.79849C9.20985 5.79618 9.18396 5.76256 9.15249 5.72377C9.09533 5.65331 9.09533 5.65328 9.15281 5.69895C9.18445 5.72405 9.22872 5.73816 9.25119 5.73023ZM18.3582 5.69525C18.3683 5.71122 18.3567 5.71596 18.3311 5.70634C18.2813 5.68758 18.2722 5.66735 18.3135 5.66735C18.3284 5.66735 18.3485 5.67991 18.3582 5.69525ZM9.59781 5.79429C9.59781 5.80981 9.58527 5.80346 9.56993 5.78019C9.5546 5.75692 9.54206 5.72518 9.54206 5.70967C9.54206 5.69415 9.5546 5.7005 9.56993 5.72377C9.58527 5.74704 9.59781 5.77878 9.59781 5.79429ZM5.62879 5.73443C5.62879 5.74027 5.60613 5.7625 5.57845 5.7838C5.53283 5.81886 5.53182 5.81787 5.56758 5.77314C5.60518 5.72614 5.62879 5.71122 5.62879 5.73443ZM10.1937 5.78549C10.1845 5.80797 10.1777 5.80129 10.1763 5.76842C10.1751 5.73869 10.1819 5.72205 10.1914 5.73141C10.201 5.74078 10.202 5.76512 10.1937 5.78549ZM18.2929 5.80667C18.2827 5.87443 18.2996 5.90602 18.3851 5.97968C18.4427 6.02924 18.4827 6.07669 18.4741 6.08512C18.4511 6.10774 18.2847 5.9456 18.2556 5.87212C18.2302 5.80806 18.2467 5.72377 18.2846 5.72377C18.296 5.72377 18.2997 5.76106 18.2929 5.80667ZM18.5476 5.81251C18.5638 5.84213 18.5884 5.85948 18.6024 5.85105C18.6163 5.84258 18.6353 5.84772 18.6445 5.86241C18.6538 5.87711 18.6505 5.89573 18.6371 5.9038C18.6238 5.91189 18.5708 5.87468 18.5193 5.82115C18.4678 5.76761 18.4465 5.73161 18.4719 5.7412C18.4974 5.75079 18.5315 5.78287 18.5476 5.81251ZM1.2993 5.81779C1.2993 5.8359 1.31549 5.85229 1.33526 5.85423C1.39909 5.8605 1.40369 5.86433 1.38427 5.89514C1.37202 5.91457 1.34072 5.90298 1.29714 5.86284C1.25974 5.82839 1.23653 5.78851 1.24553 5.77421C1.26498 5.74332 1.2993 5.77113 1.2993 5.81779ZM9.31103 5.8084C9.31103 5.82391 9.29808 5.8366 9.28226 5.8366C9.26644 5.8366 9.25349 5.82391 9.25349 5.8084C9.25349 5.79288 9.26644 5.78019 9.28226 5.78019C9.29808 5.78019 9.31103 5.79288 9.31103 5.8084ZM9.73342 5.84191C9.72424 5.86439 9.71742 5.8577 9.71604 5.82484C9.71481 5.79511 9.7216 5.77847 9.73115 5.78783C9.7407 5.7972 9.74173 5.82154 9.73342 5.84191ZM10.2506 5.87186C10.2427 5.89127 10.2361 5.87539 10.2361 5.8366C10.2361 5.79782 10.2427 5.78196 10.2506 5.80134C10.2586 5.82075 10.2586 5.85249 10.2506 5.87186ZM9.80965 5.96365C9.93551 6.00608 9.97429 6.03406 9.90726 6.03406C9.8818 6.03406 9.85301 6.02137 9.84323 6.00585C9.82119 5.97088 9.74254 5.96848 9.74254 6.00281C9.74254 6.01663 9.77812 6.03722 9.82165 6.04859C9.86517 6.05993 9.88416 6.07519 9.86388 6.0825C9.81538 6.09999 9.67827 6.01113 9.70016 5.9764C9.70951 5.96157 9.69559 5.94944 9.66924 5.94944C9.63737 5.94944 9.62715 5.93451 9.63877 5.90481C9.64838 5.88027 9.65753 5.84538 9.65911 5.82724C9.6607 5.80913 9.6705 5.82408 9.68092 5.86047C9.69349 5.90433 9.7369 5.93911 9.80965 5.96365ZM10.1453 5.84904C10.1453 5.8559 10.1323 5.86933 10.1165 5.87892C10.1007 5.88851 10.0877 5.88289 10.0877 5.86648C10.0877 5.85006 10.1007 5.8366 10.1165 5.8366C10.1323 5.8366 10.1453 5.84219 10.1453 5.84904ZM10.2308 5.97877C10.2012 6.0335 10.0655 6.10625 10.0399 6.08111C10.0293 6.07076 10.0417 6.06227 10.0676 6.06227C10.1197 6.06227 10.1906 5.95652 10.1781 5.8972C10.1715 5.86512 10.1769 5.86512 10.2122 5.8972C10.2387 5.92123 10.2455 5.95141 10.2308 5.97877ZM10.5679 5.97059C10.5699 6.05858 10.5662 6.06568 10.5457 6.01288C10.5259 5.96171 10.5351 5.86481 10.5598 5.86481C10.5629 5.86481 10.5665 5.91243 10.5679 5.97059ZM10.7202 5.98636C10.7204 5.99891 10.7093 6.00233 10.6955 5.99392C10.6816 5.98554 10.6625 6.02659 10.6529 6.08515C10.6363 6.18678 10.4832 6.37485 10.4464 6.33877C10.4377 6.33019 10.4722 6.28881 10.5231 6.24681C10.5972 6.18565 10.6075 6.16537 10.5746 6.14501C10.5418 6.12461 10.5444 6.11948 10.5878 6.11911C10.6341 6.11874 10.6394 6.1036 10.6245 6.01291C10.6126 5.94033 10.6158 5.92041 10.6347 5.94944C10.6575 5.98444 10.6624 5.98199 10.6631 5.93533C10.6638 5.88854 10.6687 5.88614 10.6919 5.92123C10.7072 5.9445 10.7199 5.97381 10.7202 5.98636ZM10.1273 5.96247C10.1097 6.00752 10.0074 6.04927 9.9801 6.02253C9.97075 6.01336 9.98309 6.00585 10.0075 6.00585C10.0319 6.00585 10.068 5.98681 10.0877 5.96354C10.1331 5.90997 10.148 5.90958 10.1273 5.96247ZM10.4782 6.11231C10.4285 6.15886 10.4277 6.15809 10.4607 6.09511C10.4796 6.05889 10.503 6.03697 10.5127 6.04642C10.5223 6.05587 10.5068 6.08551 10.4782 6.11231ZM11.0083 6.06227C11.0467 6.08659 11.0467 6.0896 11.0083 6.0896C10.9846 6.0896 10.9457 6.07731 10.922 6.06227C10.8837 6.03796 10.8837 6.03494 10.922 6.03494C10.9457 6.03494 10.9846 6.04724 11.0083 6.06227ZM18.2145 6.12244C18.271 6.17104 18.312 6.21587 18.3058 6.22199C18.2995 6.22814 18.2524 6.19474 18.2011 6.14771C18.091 6.04693 18.0113 6.03945 17.9374 6.123C17.8947 6.1713 17.8837 6.17448 17.8837 6.13852C17.8837 6.08433 17.9602 6.03609 18.0481 6.03491C18.0832 6.03446 18.1581 6.07384 18.2145 6.12244ZM10.9157 6.2421C10.8297 6.35459 10.7791 6.36633 10.7791 6.27383C10.7791 6.25832 10.7897 6.26216 10.8028 6.28235C10.8203 6.30943 10.8471 6.29271 10.9045 6.21888C10.9474 6.16379 10.9887 6.11869 10.9963 6.11869C11.0039 6.11869 10.9677 6.17423 10.9157 6.2421ZM10.4617 6.20165C10.4617 6.23493 10.4056 6.27053 10.385 6.25034C10.3644 6.23011 10.4007 6.1751 10.4347 6.1751C10.4496 6.1751 10.4617 6.18704 10.4617 6.20165ZM17.9335 6.22035C17.9239 6.22972 17.8991 6.23073 17.8783 6.22258C17.8554 6.21358 17.8622 6.2069 17.8957 6.20554C17.926 6.20433 17.943 6.21099 17.9335 6.22035ZM10.3011 6.30506C10.3262 6.31448 10.3467 6.33868 10.3467 6.35883C10.3467 6.38153 10.3713 6.39101 10.4114 6.38371C10.4488 6.37691 10.4579 6.37993 10.433 6.39093C10.4092 6.40136 10.3769 6.42667 10.361 6.44715C10.3399 6.47445 10.3208 6.47628 10.2891 6.454C10.2527 6.42842 10.2539 6.42613 10.2963 6.43953C10.324 6.44827 10.3467 6.44311 10.3467 6.42811C10.3467 6.41307 10.324 6.40057 10.2963 6.40035C10.2533 6.39998 10.2522 6.39592 10.2891 6.37256C10.3275 6.34825 10.3275 6.34523 10.2891 6.34523C10.2654 6.34523 10.2266 6.35753 10.2028 6.37256C10.1673 6.39507 10.1669 6.39998 10.2004 6.40035C10.2228 6.40057 10.2335 6.40828 10.2242 6.41747C10.2148 6.42664 10.1835 6.42049 10.1546 6.40382C10.1055 6.37541 10.1063 6.37231 10.1669 6.35561C10.2024 6.34579 10.2316 6.32656 10.2316 6.31285C10.2316 6.28337 10.2408 6.28232 10.3011 6.30506ZM18.2002 6.3333C18.2002 6.35663 18.1443 6.36983 18.1315 6.34952C18.1232 6.33634 18.1352 6.32554 18.1583 6.32554C18.1813 6.32554 18.2002 6.32904 18.2002 6.3333ZM2.93142 8.78438C2.94301 9.94261 2.94704 9.97122 3.13871 10.2543C3.2178 10.3711 3.41298 10.5395 3.9927 10.9913C4.40604 11.3135 4.91412 11.7104 5.12177 11.8734L5.49934 12.1697L5.51372 16.3162C5.5242 19.331 5.53706 20.4819 5.56087 20.5332C5.61294 20.6452 5.73356 20.757 5.86601 20.816C5.96534 20.8602 6.05498 20.8705 6.34223 20.871C6.7244 20.8717 6.82635 20.8991 6.88751 21.0174C6.90745 21.0559 6.92491 21.245 6.92963 21.4736C6.93768 21.8622 6.93809 21.8643 7.01844 21.932L7.09916 22H8.69635H10.2936L10.3776 21.9175L10.4617 21.8351V21.4534C10.4617 21.0435 10.4837 20.953 10.5957 20.903C10.6957 20.8583 12.4851 20.8597 12.5708 20.9045C12.6932 20.9684 12.7037 21.0096 12.7047 21.431L12.7056 21.8351L12.7897 21.9175L12.8738 22H14.471H16.0682L16.1489 21.932C16.2295 21.864 16.2296 21.8636 16.244 21.4251C16.2561 21.0537 16.2662 20.9786 16.3097 20.936C16.353 20.8936 16.4298 20.8836 16.8011 20.8717C17.2286 20.858 17.2452 20.8551 17.3811 20.7727C17.4804 20.7124 17.5423 20.6472 17.5945 20.5478L17.668 20.4077L17.672 16.2347L17.6759 12.0617L17.8458 11.9322C18.7953 11.2085 19.8142 10.3908 19.8761 10.303C20.0988 9.98676 20.1272 9.79757 20.1263 8.63673L20.1256 7.73898L19.5944 7.73982L19.0632 7.74067V8.68991V9.63915L18.8978 9.77731C18.8068 9.85331 18.5511 10.0564 18.3296 10.2286C18.1081 10.4008 17.6241 10.7778 17.254 11.0664L16.5811 11.5911H14.3269H12.0727V9.6638V7.73647L11.5405 7.73858L11.0083 7.74067V9.66589L11.0083 11.5911H8.73942H6.47053L5.82671 11.0904C5.47262 10.815 4.93774 10.3993 4.6381 10.1666C4.33849 9.93387 4.06986 9.72123 4.04118 9.6941C3.99288 9.64834 3.98905 9.57486 3.98905 8.69084V7.73697L3.45501 7.73881L2.92097 7.74067L2.93142 8.78438ZM11.6782 12.437C11.6865 12.4683 11.6827 12.4874 11.6697 12.4795C11.6567 12.4717 11.6387 12.4812 11.6295 12.5007C11.6204 12.5202 11.6202 12.5075 11.629 12.4726C11.6454 12.4078 11.6234 12.396 11.543 12.4262C11.5181 12.4356 11.5061 12.4566 11.5163 12.4729C11.5272 12.4902 11.5212 12.4941 11.5018 12.4824C11.4835 12.4713 11.4686 12.4778 11.4686 12.4968C11.4686 12.5158 11.4603 12.5232 11.4501 12.5133C11.4092 12.4731 11.5912 12.339 11.6449 12.3697C11.6549 12.3754 11.6698 12.4057 11.6782 12.437ZM11.5298 12.6137C11.5611 12.6712 11.5598 12.6735 11.5165 12.6384C11.4901 12.6171 11.4686 12.5886 11.4686 12.575C11.4686 12.5319 11.4942 12.548 11.5298 12.6137ZM11.8426 12.628C11.8426 12.6398 11.8167 12.6653 11.785 12.6847C11.7198 12.7246 11.71 12.7083 11.7635 12.6488C11.8029 12.6049 11.8426 12.5945 11.8426 12.628ZM11.6883 12.6998C11.6993 12.7106 11.6875 12.7194 11.6621 12.7194C11.6366 12.7194 11.6085 12.7079 11.5996 12.6937C11.5812 12.6645 11.6577 12.6698 11.6883 12.6998ZM11.2384 12.7347C11.2384 12.7431 11.2126 12.7773 11.1809 12.8106C11.1183 12.8765 11.1061 12.8603 11.1531 12.774C11.1802 12.7244 11.2384 12.6976 11.2384 12.7347ZM11.4524 12.8581C11.5755 12.9849 11.5207 12.9646 11.3763 12.8299C11.3084 12.7665 11.2787 12.7273 11.3104 12.7428C11.342 12.7583 11.4059 12.8102 11.4524 12.8581ZM10.379 12.8962C10.3506 12.9239 10.3473 12.9206 10.3629 12.8804C10.3737 12.8526 10.3898 12.837 10.3986 12.8456C10.4075 12.8543 10.3987 12.8771 10.379 12.8962ZM10.6174 12.8846C10.6258 12.8979 10.6006 12.9028 10.5615 12.8954C10.5075 12.8853 10.4905 12.8941 10.4905 12.9324C10.4905 12.9601 10.4824 12.9748 10.4725 12.9651C10.4627 12.9555 10.4623 12.928 10.4716 12.904C10.4898 12.8577 10.5919 12.8442 10.6174 12.8846ZM11.0658 12.9048C11.0658 12.9137 11.047 12.9394 11.0239 12.962C11.0009 12.9847 10.9893 13.0218 10.9982 13.0447C11.0072 13.0675 11.0001 13.0862 10.9826 13.0862C10.9399 13.0862 10.9419 12.9651 10.9853 12.9225C11.0215 12.8871 11.0658 12.8773 11.0658 12.9048ZM11.2633 12.9874C11.3458 13.0764 11.3558 13.1185 11.2816 13.0643C11.2173 13.0175 11.1153 12.8887 11.1425 12.8887C11.1586 12.8887 11.2129 12.9331 11.2633 12.9874ZM10.6704 13.0621C10.6544 13.0777 10.6502 13.0514 10.6597 12.9954C10.6729 12.917 10.677 12.9131 10.686 12.9695C10.6919 13.0062 10.6849 13.0479 10.6704 13.0621ZM15.5848 13.2024C15.771 13.288 15.9285 13.4322 16.0208 13.6017L16.0858 13.7208V16.2314V18.7419L16.0148 18.8782C15.934 19.0332 15.7854 19.1753 15.6052 19.2696L15.4816 19.3343L11.4542 19.342L7.42676 19.3498L7.37642 19.2895C7.32918 19.233 7.32607 19.0447 7.32607 16.2283C7.32607 13.2563 7.32665 13.2266 7.3841 13.1703C7.44181 13.1137 7.46407 13.1134 11.4331 13.1209L15.4241 13.1285L15.5848 13.2024ZM8.07403 16.2384V18.6855L11.6329 18.6794C14.332 18.6747 15.2121 18.6651 15.2756 18.6393C15.4189 18.581 15.4385 18.4851 15.4385 17.8402V17.261L14.856 17.2607C14.0662 17.2602 13.8729 17.2045 13.5899 16.8959C13.371 16.6572 13.3246 16.5335 13.3243 16.1891C13.3241 15.9214 13.3319 15.8774 13.4048 15.7316C13.516 15.5097 13.7041 15.3289 13.9361 15.2211L14.1296 15.1313L14.784 15.1223L15.4385 15.1133V14.5779C15.4385 14.0058 15.4227 13.9276 15.2884 13.8354C15.2312 13.7961 14.8423 13.7914 11.6492 13.7914H8.07403V16.2384ZM10.3446 13.8939C10.4154 13.9821 10.4194 14.026 10.361 14.0734C10.3312 14.0977 10.3179 14.0988 10.3179 14.0769C10.3179 14.0595 10.3308 14.0452 10.3467 14.0452C10.3986 14.0452 10.3768 13.9792 10.2981 13.8987C10.2556 13.8552 10.2352 13.8196 10.2529 13.8196C10.2705 13.8196 10.3118 13.853 10.3446 13.8939ZM9.96856 14.0139C10.0176 14.0444 9.96109 14.0859 9.90131 14.0635C9.8751 14.0536 9.85534 14.0758 9.8436 14.1283C9.83025 14.1879 9.80442 14.2122 9.74156 14.2246C9.68411 14.2358 9.66239 14.2538 9.67315 14.2813C9.68184 14.3035 9.67402 14.3307 9.65578 14.3417C9.63357 14.3552 9.6258 14.34 9.63225 14.2959C9.63754 14.2597 9.67217 14.2152 9.70925 14.1972C9.74634 14.1791 9.80117 14.1249 9.83109 14.0766C9.88891 13.9834 9.90648 13.9754 9.96856 14.0139ZM10.1453 14.1588C10.1453 14.1736 10.1194 14.164 10.0877 14.1374C10.0561 14.1109 10.0302 14.0852 10.0302 14.0803C10.0302 14.0754 10.0561 14.085 10.0877 14.1017C10.1194 14.1183 10.1453 14.144 10.1453 14.1588ZM9.98706 14.3273C10.0157 14.3584 10.0306 14.3837 10.0203 14.3837C10.0099 14.3837 9.97555 14.3584 9.94391 14.3273C9.91227 14.2963 9.89731 14.2709 9.91068 14.2709C9.92406 14.2709 9.95844 14.2963 9.98706 14.3273ZM9.86914 14.5791C9.85171 14.5965 9.685 14.4352 9.685 14.401C9.685 14.3852 9.72916 14.4162 9.78313 14.4697C9.8371 14.5233 9.87579 14.5725 9.86914 14.5791ZM9.48363 14.5419C9.48363 14.548 9.46421 14.553 9.44048 14.553C9.41675 14.553 9.39733 14.5407 9.39733 14.5257C9.39733 14.5106 9.41675 14.5057 9.44048 14.5146C9.46421 14.5235 9.48363 14.5358 9.48363 14.5419ZM9.32754 14.6241C9.28142 14.7112 9.30309 14.7831 9.39048 14.833C9.41798 14.8487 9.42754 14.8618 9.41171 14.862C9.28534 14.8639 9.22795 14.6753 9.3196 14.5594C9.36718 14.4991 9.37216 14.5397 9.32754 14.6241ZM9.5855 14.5831C9.61645 14.6322 9.58121 14.6426 9.54174 14.596C9.51904 14.5692 9.51686 14.553 9.53596 14.553C9.55276 14.553 9.57508 14.5665 9.5855 14.5831ZM9.685 14.6974C9.685 14.7129 9.67206 14.7177 9.65624 14.7081C9.64042 14.6985 9.62747 14.678 9.62747 14.6625C9.62747 14.647 9.64042 14.6421 9.65624 14.6517C9.67206 14.6613 9.685 14.6818 9.685 14.6974ZM9.5987 14.8351C9.5987 14.8506 9.58576 14.8633 9.56993 14.8633C9.55411 14.8633 9.54117 14.8506 9.54117 14.8351C9.54117 14.8196 9.55411 14.8069 9.56993 14.8069C9.58576 14.8069 9.5987 14.8196 9.5987 14.8351ZM9.11673 14.915C9.12433 14.9434 9.11547 14.9667 9.09708 14.9667C9.0787 14.9667 9.06184 14.9434 9.05966 14.915C9.05747 14.8866 9.06633 14.8633 9.07933 14.8633C9.09231 14.8633 9.10914 14.8866 9.11673 14.915ZM8.97822 14.9501C8.92736 15.0052 8.92695 15.0134 8.97137 15.0893C9.00569 15.148 9.00822 15.1661 8.98066 15.1557C8.94798 15.1434 8.90992 15.0607 8.90868 14.9993C8.9082 14.9761 8.992 14.8915 9.01547 14.8915C9.0247 14.8915 9.00793 14.9178 8.97822 14.9501ZM9.12404 15.0325C9.13382 15.048 9.1281 15.0607 9.11135 15.0607C9.09461 15.0607 9.08089 15.048 9.08089 15.0325C9.08089 15.017 9.08658 15.0043 9.09357 15.0043C9.10056 15.0043 9.11426 15.017 9.12404 15.0325ZM9.26788 15.1454C9.21552 15.199 9.15816 15.2291 9.11147 15.2275C9.04409 15.2251 9.04573 15.2226 9.13057 15.1986C9.18163 15.1841 9.2371 15.1472 9.25384 15.1165C9.27058 15.0858 9.2992 15.0607 9.31741 15.0607C9.33565 15.0607 9.31336 15.0988 9.26788 15.1454ZM8.73387 15.218C8.71548 15.2397 8.70824 15.2774 8.71776 15.3016C8.72768 15.327 8.72293 15.3384 8.70659 15.3285C8.66848 15.3054 8.67012 15.2018 8.70861 15.2018C8.72535 15.2018 8.72984 15.1871 8.71856 15.1692C8.70553 15.1486 8.71068 15.1443 8.73263 15.1576C8.75898 15.1736 8.75927 15.188 8.73387 15.218ZM8.37609 15.2864C8.38587 15.3019 8.38014 15.3146 8.3634 15.3146C8.34666 15.3146 8.33294 15.3019 8.33294 15.2864C8.33294 15.2709 8.33863 15.2582 8.34562 15.2582C8.35261 15.2582 8.3663 15.2709 8.37609 15.2864ZM8.57544 15.4783C8.72826 15.6473 8.72236 15.6742 8.56742 15.5149C8.48592 15.4312 8.41924 15.3574 8.41924 15.3511C8.41924 15.3264 8.49098 15.3849 8.57544 15.4783ZM8.85075 15.4416C8.88792 15.4803 8.90538 15.5121 8.88955 15.5121C8.87373 15.5121 8.83038 15.4803 8.79321 15.4416C8.75605 15.4028 8.73858 15.371 8.75441 15.371C8.77023 15.371 8.81358 15.4028 8.85075 15.4416ZM8.36116 15.584C8.33791 15.6439 8.34505 15.6676 8.4037 15.7251C8.44245 15.7631 8.46086 15.7942 8.44464 15.7942C8.40442 15.7942 8.33869 15.7268 8.33178 15.6785C8.31973 15.5944 8.3342 15.5121 8.36098 15.5121C8.37919 15.5121 8.37922 15.5374 8.36116 15.584ZM8.60467 15.7847C8.52159 15.8442 8.50134 15.8286 8.5713 15.7589C8.60634 15.724 8.64 15.707 8.64615 15.7212C8.65228 15.7353 8.63361 15.7639 8.60467 15.7847ZM14.2692 15.7968C14.1523 15.83 14.0081 15.9916 13.9843 16.1161C13.9596 16.2454 14.0103 16.3867 14.1177 16.4877L14.2051 16.5699L14.8218 16.5785L15.4385 16.5871V16.1765V15.7659L14.8991 15.7685C14.6025 15.7699 14.3189 15.7826 14.2692 15.7968ZM10.2316 21.6486C10.3812 21.6874 10.3829 21.6888 10.2631 21.6745C10.1934 21.6662 10.1158 21.6476 10.0905 21.6331C10.0299 21.5984 10.0445 21.6 10.2316 21.6486ZM9.81446 21.6897C9.80468 21.7052 9.78373 21.7179 9.76791 21.7179C9.75209 21.7179 9.74714 21.7052 9.75692 21.6897C9.7667 21.6742 9.78765 21.6615 9.80347 21.6615C9.81929 21.6615 9.82424 21.6742 9.81446 21.6897ZM9.97987 21.6802C9.96011 21.688 9.92774 21.688 9.90795 21.6802C9.88819 21.6724 9.90436 21.666 9.94391 21.666C9.98347 21.666 9.99966 21.6724 9.97987 21.6802ZM9.62747 21.7464C9.62747 21.762 9.57569 21.7951 9.5124 21.8199C9.44911 21.8448 9.39733 21.8757 9.39733 21.8886C9.39733 21.9349 9.44739 21.941 9.50098 21.9013C9.56231 21.8557 9.5987 21.8482 9.5987 21.881C9.5987 21.9237 9.43326 21.9675 9.39897 21.9339C9.3757 21.9111 9.34992 21.9128 9.30311 21.9404C9.24236 21.9762 9.24158 21.9756 9.28784 21.9282C9.32432 21.8908 9.54793 21.7514 9.62028 21.7209C9.62425 21.7193 9.62747 21.7307 9.62747 21.7464ZM10.381 21.8369C10.349 21.8997 10.3486 21.8994 10.364 21.8272C10.3785 21.7595 10.3729 21.754 10.2985 21.7632C10.2199 21.7729 10.2196 21.7725 10.2891 21.7499C10.3841 21.719 10.4225 21.7554 10.381 21.8369ZM9.71377 21.8025C9.71377 21.8181 9.69358 21.8307 9.66892 21.8307C9.64427 21.8307 9.63207 21.8181 9.64185 21.8025C9.65163 21.787 9.6718 21.7743 9.6867 21.7743C9.7016 21.7743 9.71377 21.787 9.71377 21.8025ZM10.1386 21.7945C10.0954 21.8009 10.0177 21.801 9.966 21.7948C9.91431 21.7885 9.94966 21.7832 10.0446 21.7831C10.1395 21.7829 10.1818 21.788 10.1386 21.7945ZM9.95829 21.847C9.86891 21.8835 9.6277 21.9321 9.65149 21.9087C9.667 21.8935 9.72295 21.8711 9.77582 21.8588C9.87706 21.8353 10.0074 21.8269 9.95829 21.847ZM10.21 21.8507C10.1744 21.8574 10.1161 21.8574 10.0806 21.8507C10.045 21.8439 10.0741 21.8384 10.1453 21.8384C10.2165 21.8384 10.2456 21.8439 10.21 21.8507Z" fill="black"/>
</svg>
