<svg width="28" height="28" viewBox="0 0 28 28" fill="none" xmlns="http://www.w3.org/2000/svg">
<g clip-path="url(#clip0_194_9201)">
<path d="M27.5125 27.5192V27.518H27.5193V17.4254C27.5193 12.488 26.4564 8.68457 20.6842 8.68457C17.9094 8.68457 16.0473 10.2073 15.287 11.6509H15.2068V9.14552H9.73389V27.518H15.4327V18.4206C15.4327 16.0253 15.8867 13.7091 18.8531 13.7091C21.7758 13.7091 21.8194 16.4427 21.8194 18.5743V27.5192H27.5125Z" fill="white"/>
<path d="M0.454102 9.14697H6.15976V27.5195H0.454102V9.14697Z" fill="white"/>
<path d="M3.3046 0C1.48031 0 0 1.48031 0 3.3046C0 5.1289 1.48031 6.64016 3.3046 6.64016C5.1289 6.64016 6.6092 5.1289 6.6092 3.3046C6.60806 1.48031 5.12775 0 3.3046 0V0Z" fill="white"/>
</g>
<defs>
<clipPath id="clip0_194_9201">
<rect width="27.5192" height="27.5192" fill="white"/>
</clipPath>
</defs>
</svg>
