<svg width="32" height="28" viewBox="0 0 32 28" fill="none" xmlns="http://www.w3.org/2000/svg">
<path d="M0 2C0 0.89544 0.89544 0 2 0H30C31.1046 0 32 0.89544 32 2C32 3.10456 31.1046 4 30 4H2C0.89544 4 0 3.10456 0 2Z" fill="black"/>
<path d="M0 26C0 24.8954 0.89544 24 2 24H30C31.1046 24 32 24.8954 32 26C32 27.1046 31.1046 28 30 28H2C0.89544 28 0 27.1046 0 26Z" fill="black"/>
<path d="M2 12C0.89544 12 0 12.8954 0 14C0 15.1046 0.89544 16 2 16H18C19.1046 16 20 15.1046 20 14C20 12.8954 19.1046 12 18 12H2Z" fill="black"/>
</svg>
