<svg width="10" height="13" viewBox="0 0 10 13" fill="none" xmlns="http://www.w3.org/2000/svg">
<path fill-rule="evenodd" clip-rule="evenodd" d="M3.91154 0.0173082C2.90839 0.137251 2.04219 0.517125 1.35214 1.13974C0.730704 1.70039 0.322891 2.35183 0.122789 3.10342C0.011145 3.52282 -0.0116837 3.74538 0.00479915 4.25483C0.0258972 4.90796 0.125975 5.29839 0.42209 5.88284C1.0047 7.03278 2.10815 7.85179 3.45356 8.13287C3.58457 8.16023 3.88217 8.19643 4.11488 8.21332L4.538 8.24402L4.62709 8.42577C4.6761 8.52572 4.74972 8.70593 4.79068 8.82623C4.85782 9.02332 4.86526 9.08318 4.8659 9.43096C4.86691 9.97599 4.76054 10.4867 4.55569 10.9205C4.4938 11.0516 4.52338 11.0419 4.03516 11.0906C2.59464 11.2344 1.35112 11.8061 1.09857 12.4408L1.04698 12.5704L0.680761 12.5776C0.350087 12.5842 0.308441 12.5902 0.25185 12.64C0.14614 12.733 0.171139 12.8944 0.301023 12.9574C0.418381 13.0142 9.76724 13.0142 9.8846 12.9574C10.0114 12.8959 10.04 12.7312 9.93877 12.6452C9.8899 12.6037 9.82419 12.5942 9.5098 12.5833L9.13855 12.5704L9.08702 12.4408C8.84986 11.8443 7.72696 11.2951 6.37628 11.1149C6.187 11.0897 6.15115 11.0776 6.16252 11.0427C6.20529 10.9117 6.28941 10.5277 6.32609 10.296C6.34935 10.1491 6.37196 10.0255 6.3763 10.0214C6.38064 10.0173 6.48306 10.0379 6.60385 10.067C6.7742 10.1081 6.91603 10.1206 7.23558 10.1226C7.62963 10.1251 7.65801 10.1218 7.8844 10.0461C8.41586 9.86845 8.88054 9.45152 9.22968 8.8391C9.41442 8.51501 9.55123 8.33956 9.78402 8.12811C9.98715 7.94363 9.99965 7.92595 9.99146 7.83473C9.97932 7.69986 9.90168 7.65565 9.55692 7.5873C9.17454 7.51152 8.44573 7.50347 8.12016 7.57143C7.3989 7.72199 6.79521 8.17075 6.42328 8.83284L6.32246 9.01231L6.23323 8.75842C6.18414 8.61879 6.09022 8.38995 6.02448 8.24986C5.90838 8.00241 5.89857 7.95171 5.96665 7.95094C6.0423 7.95007 6.57102 7.68805 6.85098 7.51268C7.21415 7.28517 7.70317 6.83788 7.95473 6.50311C8.28793 6.0597 8.55531 5.4833 8.68379 4.93145C8.73618 4.70637 8.74461 4.59214 8.74481 4.10418C8.745 3.57269 8.74027 3.51921 8.66756 3.23028C8.45943 2.4035 8.09934 1.79506 7.47101 1.20845C6.83884 0.618256 6.15521 0.264553 5.31258 0.091703C4.92133 0.011441 4.25598 -0.0238907 3.91154 0.0173082ZM5.22 0.485035C6.3132 0.722553 7.203 1.32355 7.78042 2.21449C8.19351 2.85185 8.40001 3.69441 8.32238 4.42585C8.2248 5.34517 7.83792 6.11451 7.15328 6.75066C6.60404 7.26101 5.84698 7.63028 5.07907 7.76242C4.722 7.82387 4.02881 7.82397 3.69177 7.7626C2.77444 7.59564 2.01736 7.19369 1.40134 6.5466C0.708233 5.8185 0.351653 4.80822 0.437914 3.81685C0.58788 2.09331 1.96873 0.706727 3.80223 0.438535C4.0831 0.397439 4.94732 0.425772 5.22 0.485035ZM3.69548 1.57134C3.62971 1.61977 3.62309 1.641 3.62309 1.80294V1.98119H3.30593C3.00581 1.98119 2.98512 1.98459 2.92133 2.04437C2.884 2.07931 2.85389 2.13767 2.85389 2.17499C2.85389 2.27064 2.99144 2.39292 3.09902 2.39292H3.18355V3.97552V5.55811H3.08616C2.96748 5.55811 2.85389 5.65291 2.85389 5.75191C2.85389 5.79221 2.88628 5.84972 2.93419 5.89462C3.01273 5.96819 3.02078 5.96984 3.30274 5.96984H3.59103L3.60018 6.28093C3.60924 6.58811 3.61037 6.59282 3.68938 6.65643C3.75149 6.70643 3.78838 6.71742 3.85421 6.70553C4.01022 6.67735 4.03516 6.61811 4.03516 6.27578V5.96984H4.25493H4.4747V6.26366C4.4747 6.42527 4.48239 6.57624 4.49176 6.59915C4.51099 6.64606 4.64107 6.71611 4.70895 6.71611C4.73354 6.71611 4.78977 6.68227 4.83395 6.64089C4.91367 6.56618 4.91425 6.56351 4.91425 6.26019V5.95471L5.06688 5.91068C5.49642 5.78678 5.7977 5.46117 5.87687 5.03531C5.93731 4.71023 5.80693 4.33321 5.55125 4.09371L5.41593 3.96695L5.55112 3.84255C5.81003 3.60434 5.94157 3.23636 5.88275 2.91472C5.80583 2.49411 5.51238 2.16943 5.08825 2.03564L4.92798 1.9851L4.92081 1.86091C4.91059 1.68444 4.89285 1.62661 4.83114 1.56882C4.75546 1.49792 4.62503 1.50351 4.54215 1.58117C4.48426 1.63536 4.4747 1.66822 4.4747 1.81277V1.98119H4.25493H4.03516V1.80294C4.03516 1.641 4.02854 1.61977 3.96277 1.57134C3.92297 1.542 3.86283 1.51799 3.82912 1.51799C3.79542 1.51799 3.73528 1.542 3.69548 1.57134ZM5.0104 2.44027C5.27508 2.55247 5.4314 2.75267 5.45645 3.01152C5.48403 3.29642 5.31352 3.57614 5.03941 3.69569C4.90587 3.75393 4.87529 3.7563 4.24806 3.75653L3.59562 3.75678V3.07915C3.59562 2.70643 3.6049 2.39267 3.61622 2.38186C3.62754 2.37105 3.91497 2.36667 4.25493 2.37213C4.82546 2.38129 4.88362 2.38652 5.0104 2.44027ZM5.02413 4.22945C5.19954 4.31715 5.28571 4.39252 5.3634 4.52626C5.56444 4.87224 5.44054 5.27952 5.0769 5.46804L4.92798 5.54524L4.2618 5.55332L3.59562 5.56143V4.86295V4.1645L4.2618 4.17294C4.84881 4.18038 4.93941 4.1871 5.02413 4.22945ZM9.23281 7.94636L9.33448 7.96417L9.18526 8.1443C9.10317 8.24337 8.97106 8.43804 8.8917 8.57693C8.6269 9.04025 8.26661 9.42769 7.96767 9.57054C7.75869 9.67041 7.54895 9.71076 7.24932 9.70873C7.0151 9.70716 6.58031 9.64918 6.54341 9.61462C6.52569 9.59805 6.64192 9.31946 6.7542 9.1093C6.96625 8.71244 7.25855 8.3908 7.57897 8.20171C7.75265 8.09924 8.07203 7.9856 8.27639 7.95359C8.44795 7.92672 9.09287 7.92184 9.23281 7.94636ZM5.59252 8.33071C5.7382 8.62273 5.88118 9.02129 5.93099 9.27409C5.99983 9.62363 5.90423 10.5257 5.75581 10.9271L5.7191 11.0264L5.36475 11.0174C5.16984 11.0124 5.00663 11.005 5.00202 11.0009C4.9974 10.9969 5.03806 10.8691 5.0924 10.717C5.2439 10.2928 5.30442 9.92115 5.3039 9.41809C5.30352 9.0348 5.29637 8.97095 5.23063 8.7619C5.19055 8.63452 5.1227 8.45207 5.07984 8.35647L5.00188 8.18264L5.06108 8.1715C5.11144 8.162 5.4326 8.09013 5.45867 8.08251C5.46348 8.08112 5.5237 8.19281 5.59252 8.33071ZM6.01137 11.4644C6.77769 11.5446 7.43876 11.7155 7.97731 11.9727C8.19414 12.0763 8.29688 12.1456 8.46493 12.3019C8.58201 12.4108 8.67783 12.5128 8.67783 12.5287C8.67783 12.5499 7.7227 12.5575 5.0921 12.5575H1.50639L1.54614 12.4868C1.59625 12.3976 1.81308 12.2026 1.9748 12.1013C2.50132 11.7716 3.40008 11.5255 4.37855 11.4432C4.69458 11.4166 5.67636 11.4294 6.01137 11.4644Z" fill="black"/>
</svg>
