<svg width="30" height="27" viewBox="0 0 30 27" fill="none" xmlns="http://www.w3.org/2000/svg">
<path fill-rule="evenodd" clip-rule="evenodd" d="M14.0292 0.0304859C12.9012 0.308394 11.7141 1.24034 11.2386 2.22123C10.1906 4.38319 10.9373 6.74007 13.0461 7.92664C13.877 8.39405 15.3803 8.51514 16.3253 8.19058C16.5996 8.09642 16.8614 7.9821 16.907 7.93655C16.9526 7.89108 17.0363 7.85382 17.093 7.85382C17.2259 7.85382 17.5637 7.58133 18.099 7.04236C18.5424 6.59578 18.9611 5.85664 19.102 5.27119C19.2214 4.77524 19.2722 3.53465 19.1815 3.33049C19.1385 3.23354 19.0358 2.94682 18.9535 2.6933C18.6397 1.72774 17.8041 0.795198 16.888 0.388074C16.6687 0.290612 16.413 0.170625 16.3197 0.121343C16.1441 0.0287075 14.3289 -0.0433519 14.0292 0.0304859ZM15.7683 1.35796C16.2763 1.83993 16.7928 2.40473 17.1256 2.84242C17.2423 2.99585 17.4045 3.20128 17.4862 3.29899C17.5679 3.39662 17.6346 3.52474 17.6346 3.58359C17.6346 3.64244 17.6633 3.70324 17.6983 3.71882C17.7332 3.73431 17.8627 3.95464 17.986 4.2085C18.2644 4.78184 18.2163 5.01631 17.8992 4.63061C17.3782 3.99681 16.5821 3.19662 16.4726 3.19662C16.4074 3.19662 15.6285 3.9206 14.7414 4.80547C13.8545 5.69034 13.0751 6.41432 13.0096 6.41432C12.8875 6.41432 12.5446 6.09416 12.5446 5.9801C12.5446 5.94513 13.289 5.17127 14.1988 4.26041C15.1087 3.34963 15.8525 2.57569 15.8517 2.54063C15.851 2.50557 15.5647 2.27305 15.2155 2.02402C14.8663 1.77499 14.5806 1.52629 14.5806 1.47134C14.5806 1.34822 15.0707 0.909426 15.2044 0.912898C15.2579 0.914253 15.5116 1.11451 15.7683 1.35796ZM12.7613 8.52369C12.7311 8.57247 12.741 8.67984 12.7834 8.76231C12.8257 8.84479 12.8823 9.05521 12.9092 9.22981L12.958 9.54734H12.024C11.2041 9.54734 11.0933 9.56428 11.1174 9.68604C11.1325 9.76234 11.412 9.96548 11.7386 10.1375C12.0652 10.3094 12.6951 10.6429 13.1384 10.8785C13.5817 11.1141 14.183 11.4332 14.4745 11.5876L15.0048 11.8684L15.4926 11.6107C15.7608 11.4691 16.2476 11.2079 16.5742 11.0304C16.9008 10.8529 17.5498 10.5096 18.0164 10.2677C18.4945 10.0197 18.8767 9.76657 18.8921 9.68748C18.9164 9.56386 18.8088 9.54734 17.9792 9.54734H17.0388L17.0938 9.18747C17.1241 8.9895 17.1849 8.75765 17.229 8.67213C17.3553 8.42699 17.25 8.41116 16.7681 8.60278C15.6067 9.06469 14.271 9.02582 12.9561 8.49185C12.8792 8.46061 12.7915 8.47492 12.7613 8.52369ZM13.6243 12.6808C13.1833 12.8482 12.4454 13.2966 12.1642 13.5679C11.9074 13.8157 11.4417 14.4277 11.4417 14.5173C11.4417 14.5595 11.398 14.6377 11.3446 14.691C11.0954 14.9397 10.9247 15.6951 10.9183 16.5774C10.9123 17.4011 10.9329 17.5191 11.1917 18.1396C11.5512 19.0016 12.3679 19.8534 13.2647 20.3014C13.855 20.5963 13.8626 20.5976 15.0038 20.5966C16.1389 20.5956 16.1558 20.5928 16.7439 20.303C17.4717 19.9445 18.4491 19.0043 18.6826 18.4384C18.769 18.2288 18.8809 17.9811 18.9313 17.888C18.9817 17.7948 19.0397 17.2947 19.0601 16.7766C19.0922 15.9654 19.0716 15.7603 18.9119 15.2996C18.5049 14.1257 17.6475 13.2126 16.5237 12.7561C15.9764 12.5338 15.8325 12.5118 14.9747 12.5191C14.2824 12.525 13.9207 12.5683 13.6243 12.6808ZM15.3368 13.6131C15.4808 13.8466 15.5986 14.0578 15.5986 14.0823C15.5986 14.1249 15.9351 14.625 16.0228 14.7127C16.0461 14.736 16.132 14.8789 16.2137 15.0302C16.2953 15.1815 16.4289 15.4291 16.5106 15.5804C16.5923 15.7318 16.6825 15.8747 16.7113 15.898C16.8251 15.9905 17.1293 16.6704 17.0872 16.7384C17.0625 16.7783 16.5849 17.0868 16.0259 17.4239L15.0095 18.0367L13.9485 17.412C13.365 17.0683 12.8867 16.7416 12.8857 16.6859C12.8835 16.5608 13.4802 15.5277 13.5771 15.4888C13.6158 15.4732 13.6474 15.4211 13.6474 15.3728C13.6474 15.2605 14.2526 14.256 14.3428 14.2187C14.3803 14.2031 14.4109 14.1493 14.4109 14.099C14.4109 13.9711 14.9226 13.1884 15.0063 13.1884C15.0441 13.1884 15.1928 13.3795 15.3368 13.6131ZM7.03033 16.7392C7.03033 16.7826 7.2212 17.1318 7.4545 17.5152C7.68779 17.8986 7.87867 18.2436 7.87867 18.2819C7.87867 18.3202 7.6497 18.4187 7.36975 18.5008C6.85786 18.6509 6.7228 18.8066 7.0221 18.9015C7.28093 18.9834 8.1951 20.0077 8.43994 20.49C8.77715 21.1542 8.98152 21.8081 8.98152 22.2227C8.98152 22.6511 9.03887 22.6419 9.60827 22.1222C9.9863 21.7772 9.94201 21.7495 10.421 22.6298C10.573 22.9093 10.7694 23.213 10.8575 23.3049C11.0147 23.469 11.0175 23.455 11.0173 22.5005C11.0168 20.9141 10.9118 18.8617 10.831 18.8617C10.7897 18.8617 10.7098 18.8219 10.6534 18.7731C10.4582 18.6042 9.64501 18.0997 9.56798 18.0997C9.52539 18.0997 9.49052 18.0616 9.49052 18.015C9.49052 17.9684 9.45031 17.9303 9.40119 17.9303C9.35208 17.9303 9.04862 17.7588 8.72702 17.5493C8.40541 17.3397 8.12079 17.1682 8.09457 17.1682C8.06836 17.1682 7.88877 17.0539 7.69551 16.9142C7.35227 16.666 7.03033 16.5812 7.03033 16.7392ZM22.5383 16.766C22.4758 16.8243 22.2918 16.9445 22.1293 17.0333C21.9669 17.1222 21.5591 17.3698 21.2231 17.5837C20.8873 17.7976 20.4203 18.087 20.1855 18.2267C19.9508 18.3664 19.7579 18.5052 19.7571 18.5351C19.7562 18.5649 19.66 18.6133 19.5434 18.6425C19.4268 18.6717 19.3313 18.733 19.3313 18.7787C19.3313 18.8244 19.2796 18.8617 19.2162 18.8617C19.1322 18.8617 19.0867 19.0616 19.0477 19.6027C19.006 20.1805 18.9668 22.6464 18.9883 23.3415C18.9911 23.4329 19.0313 23.425 19.1616 23.3073C19.255 23.223 19.3313 23.1224 19.3313 23.0837C19.3313 23.0051 19.8432 22.1456 19.9294 22.0794C19.9598 22.0562 20.0013 21.9849 20.0218 21.9213C20.0475 21.8416 20.1762 21.9143 20.4337 22.1541C20.9219 22.6084 21.028 22.603 21.028 22.1235C21.028 21.7566 21.1342 21.3959 21.4538 20.6786C21.7211 20.0784 22.64 19.0219 23.0004 18.9004C23.2258 18.8244 23.1824 18.6077 22.9418 18.6077C22.8279 18.6077 22.7142 18.5745 22.6891 18.534C22.6639 18.4934 22.528 18.4372 22.3871 18.4091C22.0905 18.3499 22.0682 18.2268 22.3005 17.9303C22.3918 17.8139 22.4673 17.6917 22.4683 17.6588C22.4693 17.626 22.5847 17.4051 22.7247 17.1682C22.8647 16.9313 22.9792 16.72 22.9792 16.6988C22.9792 16.6153 22.6455 16.6662 22.5383 16.766ZM13.3747 17.3153C13.5013 17.3962 13.646 17.501 13.6961 17.5482C13.7462 17.5953 13.9275 17.7093 14.0991 17.8013C14.2706 17.8935 14.4109 17.9982 14.4109 18.0342C14.4109 18.0702 14.4635 18.0997 14.5278 18.0997C14.592 18.0997 14.6921 18.1568 14.7503 18.2267C14.8084 18.2965 14.8989 18.3536 14.9515 18.3535C15.0042 18.3534 15.4566 18.0867 15.957 17.7608C17.0748 17.0327 17.2847 16.9812 16.8075 17.5519C16.6015 17.7982 15.8728 18.818 15.641 19.1842C15.5082 19.3941 15.4473 19.4772 15.2071 19.7762L14.9826 20.0556L14.5907 19.5118C14.3752 19.2127 14.1416 18.8826 14.0716 18.7782C14.0016 18.6738 13.827 18.4307 13.6836 18.2381C13.5403 18.0455 13.3507 17.7641 13.2623 17.6128C13.174 17.4614 13.0719 17.3376 13.0352 17.3376C12.9987 17.3376 12.9687 17.2995 12.9687 17.2529C12.9687 17.1272 13.1156 17.1498 13.3747 17.3153ZM25.1849 18.6124C23.5215 18.7799 22.1443 20.0059 21.6232 21.7831C21.5093 22.1717 21.548 23.4735 21.6887 23.9809C21.84 24.5266 22.2313 25.2006 22.6513 25.6387C24.7331 27.8101 28.1923 27.3137 29.5463 24.6493C30.3413 23.0851 30.0775 21.2398 28.8648 19.8812C28.5867 19.5696 27.6579 18.9509 27.2209 18.7861C26.8392 18.6421 25.7837 18.5521 25.1849 18.6124ZM2.87344 18.7692C1.99405 19.1073 1.92101 19.1549 1.22842 19.8407C0.200649 20.8586 -0.214192 22.2803 0.105804 23.6883C0.209217 24.1434 0.352502 24.534 0.509616 24.7891C0.552627 24.8589 0.608533 24.9762 0.633898 25.0498C0.716357 25.2891 1.88784 26.3507 2.28045 26.5419C3.63229 27.2002 5.26832 27.1322 6.46524 26.368C7.80224 25.5143 8.53266 24.1359 8.44944 22.6237C8.40626 21.8394 8.29546 21.3859 8.0234 20.8792C7.42133 19.7581 6.79949 19.2273 5.52282 18.7446C5.01229 18.5517 3.40043 18.5666 2.87344 18.7692ZM5.38912 20.3592C6.12854 21.1039 6.6456 21.7497 6.94812 22.3063C7.04483 22.4842 7.15571 22.687 7.19457 22.7569C7.56894 23.4304 7.49658 23.6325 7.05832 23.1371C6.59538 22.6136 5.74559 21.7407 5.69885 21.7407C5.67578 21.7407 4.90862 22.4838 3.99393 23.3919C3.07933 24.3001 2.29377 25.0431 2.2483 25.0431C2.10298 25.0431 1.85543 24.7682 1.85543 24.6067C1.85543 24.5168 2.53945 23.7687 3.46728 22.8437C4.3538 21.96 5.07914 21.2151 5.07914 21.1884C5.07914 21.1019 4.64674 20.737 4.22154 20.4647C3.99334 20.3185 3.80662 20.1615 3.80662 20.1158C3.80662 20.0701 3.92759 19.9046 4.07538 19.7482C4.41183 19.3922 4.44373 19.407 5.38912 20.3592ZM26.7119 20.162C27.4411 20.8755 27.8996 21.3872 27.8996 21.4878C27.8996 21.526 27.9282 21.5699 27.9632 21.5855C28.0561 21.6267 28.4086 22.1434 28.4086 22.2383C28.4086 22.2829 28.4372 22.332 28.4722 22.3476C28.5801 22.3955 28.9176 23.1459 28.9176 23.3379C28.9176 23.4913 28.8689 23.4636 28.6035 23.1593C28.4308 22.9613 28.0453 22.5556 27.747 22.2578L27.2045 21.7164L25.5272 23.389C23.7467 25.1645 23.6579 25.2214 23.4043 24.7485C23.2968 24.5481 23.3464 24.4885 24.9602 22.8825C25.877 21.9701 26.6255 21.197 26.6236 21.1646C26.6189 21.0859 25.5516 20.3012 25.4491 20.3012C25.4049 20.3012 25.3511 20.2537 25.3296 20.1954C25.28 20.0609 25.7686 19.5391 25.9438 19.5394C26.0164 19.5395 26.362 19.8197 26.7119 20.162Z" fill="black"/>
</svg>
