<svg width="40" height="32" viewBox="0 0 40 32" fill="none" xmlns="http://www.w3.org/2000/svg">
<path fill-rule="evenodd" clip-rule="evenodd" d="M3.39505 13.8221C13.7309 9.31894 20.623 6.35019 24.0715 4.91584C33.9177 0.820477 35.9637 0.109069 37.2972 0.0855776C37.5905 0.080411 38.2463 0.153098 38.6711 0.497787C39.0298 0.788836 39.1285 1.182 39.1757 1.45795C39.2229 1.73389 39.2817 2.36251 39.235 2.85369C38.7014 8.45993 36.3926 22.0648 35.2181 28.3439C34.7211 31.0008 33.7425 31.8916 32.7951 31.9788C30.7362 32.1683 29.1727 30.6181 27.1785 29.3109C24.058 27.2654 22.2952 25.9921 19.2662 23.996C15.7657 21.6893 18.0349 20.4214 20.0298 18.3494C20.5519 17.8071 29.6236 9.55576 29.7992 8.80723C29.8211 8.71362 29.8415 8.36466 29.6342 8.1804C29.4269 7.99613 29.1209 8.05914 28.9001 8.10926C28.5872 8.18029 23.6021 11.4752 13.9451 17.994C12.5301 18.9656 11.2485 19.439 10.1001 19.4142C8.83422 19.3869 6.3991 18.6984 4.58883 18.11C2.36847 17.3883 0.60377 17.0067 0.757436 15.7809C0.837474 15.1425 1.71668 14.4895 3.39505 13.8221Z" fill="url(#paint0_linear_1617_214)"/>
<defs>
<linearGradient id="paint0_linear_1617_214" x1="20.0001" y1="0.0853271" x2="20.0001" y2="31.758" gradientUnits="userSpaceOnUse">
<stop stop-color="#2AABEE"/>
<stop offset="1" stop-color="#229ED9"/>
</linearGradient>
</defs>
</svg>
