<svg width="29" height="28" viewBox="0 0 29 28" fill="none" xmlns="http://www.w3.org/2000/svg">
<g clip-path="url(#clip0_194_9207)">
<path d="M12.1505 19.4001C12.2238 19.3381 12.2984 19.2739 12.3672 19.2063C8.53627 22.9649 2.2894 21.2106 0.825152 15.9097V15.9017C-1.13903 8.68934 7.14311 3.21072 12.3649 8.25592C12.4738 8.37173 19.6873 16.0645 19.2286 15.5749H19.2493C20.326 16.6848 21.8831 16.5633 22.8096 15.5932C23.806 14.5521 23.8415 12.8528 22.8635 11.7944C21.319 10.016 18.2861 11.345 18.5762 13.9811L16.8402 12.213L14.8267 10.2878C15.2418 9.46332 15.7864 8.74209 16.4687 8.11832C16.3953 8.18139 16.3208 8.24674 16.252 8.3121C20.0978 4.53967 26.3401 6.3353 27.794 11.6133V11.6201C29.7628 18.8313 21.4715 24.3099 16.2543 19.2648C16.1476 19.1501 8.93874 11.4092 9.3951 11.8999L9.39051 11.8827C9.37217 11.8827 9.37217 11.8655 9.37217 11.8655C8.24158 10.6994 6.70853 10.8748 5.81187 11.83C4.81429 12.8711 4.77989 14.5704 5.76027 15.6127C7.23713 17.3499 10.3353 16.0622 10.0441 13.3733C10.1565 13.4892 14.0447 17.4806 13.797 17.2272C13.1675 18.4828 12.4635 19.0595 12.1505 19.4001V19.4001Z" fill="white"/>
</g>
<defs>
<clipPath id="clip0_194_9207">
<rect width="27.5192" height="27.5192" fill="white" transform="translate(0.550293)"/>
</clipPath>
</defs>
</svg>
